<svg id="Moose_Logo_Photoshop_Image" data-name="Moose Logo (Photoshop) Image" xmlns="http://www.w3.org/2000/svg" viewBox="0 0 1958.65 2208.59"><defs><style>.cls-1,.cls-2,.cls-3,.cls-4,.cls-5{stroke:#000;stroke-miterlimit:10;}.cls-1,.cls-2{stroke-width:2px;}.cls-2,.cls-5{fill:#fff;}.cls-3{stroke-width:11px;}.cls-4{stroke-width:6px;}.cls-5{stroke-width:3px;}</style></defs><title>Resampled Metal Moose Black Logo</title><path class="cls-1" d="M585.66,49.24c-.33,9.49-6.17,13.91-12.27,18.08-7.37,5-15.43,9.25-22.12,15.05-21.8,18.91-39.07,41.55-52.83,66.91-3.62,6.68-7.41,13.28-11.29,20.22,10.91,7.46,22.64,6.66,33.91,5.2,15-2,29.81-5.55,44.75-8.11,3.85-.66,7.91-.1,12.42-.1.43,10.93-3.33,19.65-10.13,27.15-13.37,14.73-23.87,31.06-27.39,51a219.74,219.74,0,0,1-11.33,40.94c-.44,1.13-.06,2.58-.06,4.15,11.18,4.08,22.54,3.45,33.67,1.78,24.51-3.68,48.82-8.72,73.38-11.9a110.76,110.76,0,0,1,44.36,3.34c1.83.52,3.44,1.83,6.27,3.39a44.6,44.6,0,0,1-5.46,2.94c-18.92,6.61-34.38,18.2-48.08,32.59-20.71,21.74-34.64,47.49-44.14,75.6-7.42,21.95-13.12,44.41-12.34,68,.16,5,.08,10,0,15-.38,28.36,7,54.55,19.16,80.2,5.45,11.52,12.58,13.45,23.15,13.86,12.87.49,24.79-3.78,37.12-6,1.6-.29,3.18-1.3,4.72-1.22,10.67.57,14.73-5.74,17.55-14.93a265,265,0,0,1,13.51-36.09c3.81-8,9.79-15.06,15.35-22.1a171.63,171.63,0,0,1,16.68-18.56c14.55-13.72,32.06-22.34,51.09-28,.87-.26,1.91.05,3.31.12-2.27,6-4.79,11.62-6.47,17.47a104.56,104.56,0,0,0-3.48,17.49c-1.91,17.56-2.11,35,2.12,52.44,4.05,16.73,14.31,27.59,29.9,33.15,17.56,6.26,34.57,4.25,49.68-7.31,9.31-7.13,14.43-17.07,17.18-28.33.48-2,1.25-3.87,2.44-7.5,4.65,7.23,7,13.14,7,19.87q0,34,0,67.91c0,3.63,0,7.26,0,11.53,3.07.29,5.61.74,8.15.74,17.75,0,34.67,4.37,51.31,9.93,19.43,6.49,38.56,14,58.22,19.67,11.29,3.26,23.33,4.66,35.12,5.32,12.32.69,24.16-3.23,35.5-8,6.26-2.62,7.3-5.14,5.64-11.89-1.57-6.39-3.39-12.73-5.23-19-3.79-13.05-4.72-26.62-7.27-39.83-2.62-13.58.61-26.15,1.05-39.49,11.93-2.26,21.91,2.19,31.41,7.54,7.22,4.06,13.8,9.25,20.79,13.74,7.78,5,15.5,9.76,24.67,12.53,8.34,2.52,15.9,1.46,23.12-1.38,4.2-1.66,8.13-5.89,10.51-10A103.59,103.59,0,0,1,1194.69,536c10.08-8.18,13-18.74,8.61-31.21-2.2-6.23-3.6-12.78-6.18-18.84-2-4.67-1.25-8.89-1.2-14.27,10.95,3,20.93,5.15,30.51,8.46,16.86,5.82,33.63,12,50.16,18.68,21.14,8.58,37.1,22.64,45,44.82,3.46,9.69,11.71,13,21.78,9.77,8.43-2.7,13.89-8.92,18.79-15.68,7.81-10.79,13-22.9,17.31-35.44.75-2.19,1.63-4.33,2.31-6.53,7.13-22.82,13.3-46.11,11.49-70-2.95-39-18.55-72.07-50.22-96.54a170.38,170.38,0,0,0-39.53-23.26c1.7-4.36,5.39-4.89,8.77-5.47a81.43,81.43,0,0,1,34.56,1.16l41.29,10.75c2-12.71,2.76-24.79-.36-36.76-4.58-17.53-14.58-32.44-23.71-47.81-5.73-9.65-10.44-19.91-15.41-30-1.12-2.27-1.43-4.95-2.4-8.48,16.32-2.48,31.17-6,47.52-3.62,20.15,2.88,39.37,8.28,58.57,14.34,17.95,5.66,35.77,11.7,53.81,17,5.87,1.74,12.24,1.79,19.44,2.75-5.4-21.26-13-39.88-24.11-56.83-15-23-30.76-45.53-46.14-68.31-13.73-20.34-26.13-41.4-34.24-64.71-.81-2.33-1.19-4.81-2.06-8.41,9.07,1.42,16.95,2,24.46,3.93,37.49,9.73,74.2,21.65,109.65,37.55q39.5,17.71,77,39a878.81,878.81,0,0,1,83.48,54c30.38,22.09,59.43,45.79,85.44,73,24.38,25.47,45.91,53.07,62.89,84.19,10.81,19.82,20.74,40,27.27,61.56,4.66,15.4,8.07,31.19,11.8,46.86.65,2.74.09,5.77.09,9.75-5-.76-9.2-1.16-13.29-2-39.71-8.61-77.74-5.25-113.2,15.94-25,14.94-43.72,36.46-60.12,59.94-15,21.48-29.1,43.6-43.22,65.68-24.7,38.65-53.84,73.26-91,100.58a465.37,465.37,0,0,1-96.57,54.92c-15.59,6.51-30.7,14.16-46.28,20.71-13.12,5.51-26.45,10.92-41.25,9.14-3.59-.43-7.14-1.21-10.7-1.87-15.57-2.91-30.25-1-44.34,6.75-8.09,4.42-16.61,8.54-26.42,7.13a21.18,21.18,0,0,1-5.7-1.23c-6.45-2.92-7-6.28-1.95-11.2,2.38-2.31,5-4.35,7.59-6.47,3.65-3,7.81-6.14,6-11.45-1.67-4.91-6.56-6.65-11.29-6.87-9.63-.46-19.29-.53-28.93-.32-4.21.09-8.39,1.73-12.61,1.86-6.2.18-9.59,4.21-12.55,8.53-12.81,18.69-15.37,38.74-8.6,60.47,7,22.42,19.06,42.28,29.93,62.77,6,11.35,12.13,22.66,18.63,34.8,2.61,0,5.94.25,9.21,0,27.09-2.38,51,6.58,73.26,20.85q19.27,12.34,38.25,25.12c11.55,7.76,23.85,8.42,37.2,5.91,16.55-3.11,33.23-6.76,50.16-5.66a301.75,301.75,0,0,1,42.18,5.54c14.26,3,28.54,2.87,42.71,1.91,20.14-1.36,39.63.3,58.95,6.15,13.9,4.21,27.91,8.44,42.17,10.91a102.81,102.81,0,0,0,42.55-1.31,95.48,95.48,0,0,1,29.48-2.94c7.2.53,14.53,4.32,21,8,14.65,8.32,25.91,20.62,36.41,33.59,21,25.94,37.15,54.82,50.77,85.14a324.54,324.54,0,0,1,20.51,60.77c3.86,16.94,6.72,34.24,7,52,.29,21.82-1.42,43.53-1.93,65.28-.58,24.87,10,43.52,28.63,58.26,10.38,8.22,21.75,15.18,32.68,22.71.27.19.62.27.88.46,17.39,12.54,17.07,12.54,17.46,34.34q.92,50.82,2.69,101.63c.64,18-5.06,34.15-13.73,49.07-11.65,20-24.95,39.12-37.22,58.82-5.07,8.14-9.35,16.77-13.89,25.23a20.24,20.24,0,0,0-2.53,6.44c-2.1,15.05-8.3,28.63-14.21,42.43-6.4,14.94-8.08,31.25-10.07,47.15-2.55,20.29-3.08,40.84-4.4,61.29-.21,3.3,0,6.63,0,10.77-18.76,12.22-32.3,30.92-48.34,47.11a348.76,348.76,0,0,1-27.12,24.87c-14.68,12-32.45,15.76-50.84,17.17-19.34,1.48-38.26-2.74-57.37-4.38-11.85-1-23.71-1.87-35.57-2.72-24.81-1.79-49.17,1.28-73.34,6.73-34.1,7.69-68.18,15.5-102.38,22.7-31.71,6.67-63.82,8.24-96.12,5.66-3.8-.3-9.14-2.12-11.09-.33-4.22,3.88-7.37,9.35-9.76,14.71-6.46,14.49-11.49,29.48-12.73,45.48-1,13.52-3.14,27-3,40.54.13,16.48,1,33,4.85,49.25,2.11,9,3.09,18.2,4.86,27.25a248.35,248.35,0,0,0,19.57,59.08c.52,1.1.26,2.56.41,4.34-12.82,5.3-25.47,10.75-38.29,15.77-21.61,8.46-43.41,16.41-65,25a589.52,589.52,0,0,1-85.15,26.63c-18.91,4.38-38.15,7.64-57.41,10.11a504.63,504.63,0,0,1-53.62,3.94c-19.61.41-39.24-.87-58.87-1.18-28.54-.44-56.9-3.38-85.66-1.14-30.1,2.35-60.53.81-90.81.53-14.61-.14-29.28-.66-43.81-2.16s-28.56-4.73-42.91-6.62c-25.55-3.37-49.55-12.27-73-22.06-28.09-11.75-55.43-25.41-82.58-39.26-20.07-10.24-39.31-22.11-60.08-33.92,1.43-6.35,2.11-13,4.42-18.93,8.23-21.29,16.65-42.53,25.69-63.48,12.45-28.85,23.1-58.26,29.91-89,1.21-5.45,1.08-11.24,1.2-16.89.19-8.33-.06-16.66.07-25,.29-19.42-6.67-36.86-14.52-54.07a34.63,34.63,0,0,0-2.82-4.13c-5.49.77-11.31,2.38-17.09,2.24-12.55-.3-25,.87-37.71-1.43-13.59-2.47-27.69-2.09-41.53-3.32-9.86-.88-19.64-2.93-29.51-3.43-13.29-.68-26.64-.73-40-.43-19.81.44-38.89,4.65-56.23,14.43a163.68,163.68,0,0,0-24.28,17.17,70.78,70.78,0,0,1-48.55,17c-18.19-.48-35.42-5.91-49.91-17.25-15.37-12-30-25.05-44.94-37.61-2-1.71-4-3.72-6.32-4.83-11-5.17-16.44-14.13-19.89-25.44-9.18-30.15-25.87-56.46-43.79-82-20.16-28.72-41.17-56.87-60.77-86-18.16-27-32.6-56-41.19-87.58-7-25.82-8.28-52.19-7.51-78.8a199.69,199.69,0,0,1,16.72-74.91c8.65-19.75,19.89-38.12,32.65-55.66,19.11-26.26,39.95-51.32,56.25-79.57,12.32-21.34,21.58-44.1,25.67-68.2,3.6-21.19,4-42.91,3.2-64.57-.73-20.63-1.84-41.44,0-61.92,1.9-21.22,3.62-42.79,12-63,4.14-10,9.62-18.9,18.18-25.72,9.44-7.51,19-12.31,31.88-7.48,11.13,4.16,23.2,5.75,34.68,9.11,9.45,2.76,19,2.53,28.66,3.16,24.89,1.61,49.33-1.8,73.27-7.44,18-4.24,35.28-11.64,53-17.33a64.84,64.84,0,0,1,16.36-3.36c15.61-.77,31.29-.35,46.88-1.39,35.76-2.39,68.6-12.87,97.47-35.11a194.16,194.16,0,0,1,34.83-21c17-8.12,35.29-11.2,54.13-7,4.33,1,7.11-.59,9.42-3.76,8.95-12.31,18.39-24.3,26.61-37.08,13.38-20.8,22.37-43.68,25.25-68.22,2.28-19.39,2.14-39-4.52-58-1.5-4.27-4.47-5.22-8-6.39-10.17-3.37-20.38-2.35-30.39.13-14.4,3.56-28.65,7.76-42.8,11.65-.24,12.74,4.2,22.21,11.59,30.64a77.11,77.11,0,0,1,7.7,10.44c1.62,2.63,2.48,5.72,4,9.32-10.85,1-20.49,3.21-29.85,2.38-30.81-2.74-61.67-4.37-91.87-13.1-33.54-9.7-64.29-24.42-93.22-43.45C408.44,705,380.54,678.48,354,650.5c-27.66-29.13-54.48-59.08-82.6-87.75-25.33-25.83-52.73-49.52-83.46-68.87A323.12,323.12,0,0,0,85.72,451.46c-10.94-2.44-22.2-3.48-33.3-5.23-2.25-.35-4.45-1-6.9-1.52-.84-8.25,3.89-14.35,6.78-20.69,10.59-23.18,21.52-46.22,33-68.94,22.35-44.09,47.55-86.52,78.06-125.51,19.66-25.12,40.8-48.87,64.88-70.13A454.29,454.29,0,0,1,302.48,106c24.12-13.88,49.23-25.9,76.16-33.42,21.62-6,43.16-12.94,65.21-16.62,21.46-3.58,43.17-7,65.19-6.75C534.35,49.47,559.67,49.24,585.66,49.24ZM1773.84,1241.76l.37-3.27c5.24-1.75,10.41-3.75,15.73-5.19,11.12-3,20.06-8.41,24.63-19.68,6.24-15.39,3.31-31.27.1-46.14-4.75-22-11.78-43.66-19.85-64.7a126.07,126.07,0,0,0-20.87-35.94c-20.68-24.4-48.61-37.94-79.12-45.7-23.82-6.06-48.06-10.45-72-16a172.26,172.26,0,0,0-42.56-4.62c-17.66.37-35.33-.2-53,.22-8.95.22-18.12.71-26.74,2.89-17.4,4.4-34.5,10-51.67,15.23-2.81.86-5.36,2.59-8,4-9.73,5-19.28,10.39-29.22,14.92-7.91,3.61-11.36,1.88-14.66-6.28a26.71,26.71,0,0,1-1.67-8.69c-.26-5.65-.07-11.33-.08-17,0-14.46-4.17-26.87-14.35-38-21.92-23.93-47-39.59-80.87-37.66-16.62.95-30.94,6.9-42.9,18.2-2.33,2.2-3.34,6.24-4,9.62-1.46,7.2,2.73,12.78,6.61,18.11,5.09,7,4.43,14.11,1.62,21.6-12.17,32.37-10.68,63.63,7.51,93.63,6.29,10.38,13.78,20.21,15.84,32.72,2.75,16.74-.11,31.5-13.81,43-8.83,7.42-19.22,11.75-29.77,15.81-11.11,4.28-22.59,7.74-33.29,12.85-17.05,8.13-30,21.6-42.73,35.24-9.7,10.38-19.55,20.8-30.53,29.74-18.57,15.13-40.66,23.16-63.84,28.51-25.23,5.83-50.64,9.87-76.62,9-14.24-.49-28.49-1.07-42.7-2-11.56-.77-23.27-1.21-34.57-3.48-24.24-4.88-48.53-9.53-72.21-17.07-29.13-9.28-57.39-20.4-83.74-35.92-29.82-17.57-56-39.09-72.53-70.43-5.88-11.17-9.88-22.93-10.68-35.76-1.21-19.28,4.16-37.22,10.31-55.06,5.26-15.26,10.44-30.44,13.57-46.44,3.6-18.39-1.08-34.45-11.47-48.45-13.78-18.56-32.12-32.57-52.2-44-10.32-5.86-21.83-8.37-33.55-5.94-13.95,2.88-21.23,13.4-26.82,25.62a216.59,216.59,0,0,1-12.52,23.57c-4.14,6.7-10.7,8.22-18.37,6.56-16.79-3.64-33.86-3.17-50.57-.57-15.37,2.4-30.37,7.1-45.54,10.78-2.58.63-5.17,1.26-7.77,1.76-15.31,3-30.82,5.17-45.87,9.12a184.18,184.18,0,0,1-31.29,5c-5.94.51-11.84,1.43-17.76,2.18-4.6.58-9.18,1.22-13.78,1.76-5.28.61-10.61.86-15.84,1.74-23.79,4-46,13.45-68.33,21.8-16.66,6.22-28.12,19.72-29.67,38.17-1.27,15.18-.68,30.66.61,45.87,1.69,19.84,5.63,39.48,4.38,59.55-.73,11.6-2,23.26-1.59,34.83.72,18.89-6,35.45-15.17,51-6.38,10.8-14.9,20.36-22.75,30.25-25.67,32.33-52,64.15-76.89,97.08-7.63,10.1-13.06,22.62-16.66,34.87-9.55,32.47-12.49,65.94-10.88,99.76.79,16.57,4.76,32.05,14.66,45.87,14.34,20,27.7,40.73,42.38,60.47,10.69,14.38,18.86,30.62,32.07,43.17,6.5,6.18,12.6,12.84,18.5,19.61,14.8,17,24.8,37,34.5,57.08,5.93,12.28,12.06,24.58,16.51,37.43s12.17,18.29,25.41,18.77c17.69.64,34.93.87,52.11-5.42,14.89-5.45,30.6-8.91,46.15-12.28,20.42-4.42,41-7.91,61.58-11.76,7.51-1.41,15-3.54,22.57-3.91a448.19,448.19,0,0,1,89.55,4.59c21.19,3.25,42.41,2.72,63.5,5.16,10.87,1.26,22,.89,32.76,2.48,17,2.5,33.68,2.64,50.38-2,12.78-3.58,25.83-6.18,38.67-9.55,23.2-6.09,46.05-13.12,66.94-25.44a93.51,93.51,0,0,1,16.31-7.25c17.88-6.33,36-12.09,51.71-23.24a56.14,56.14,0,0,1,12.33-6.54c34.38-13.11,66-31.5,97.6-50.05,20.37-12,39.79-25.65,60.6-36.76,18.62-9.95,36.2-20.67,51.18-35.74,18.15-18.26,35.52-36.94,46.61-60.6a20.75,20.75,0,0,1,5.67-6.84,196,196,0,0,1,17.52-13.26q31.85-20.58,64-40.64c13.26-8.24,26.26-17.26,40.44-23.55,18.58-8.25,37.25-16,54.1-27.59,9.53-6.53,19.15-12.93,30.37-20.49-2.55-1.32-3.39-1.86-4.3-2.2a26.13,26.13,0,0,0-4.68-1.45,475.62,475.62,0,0,0-75.21-6c-32.85-.13-65.61,1.4-98.21,5.87-14.71,2-29.57,3-44.26,5.17-25.75,3.83-51.41,8.31-77.12,12.38q-24.94,3.95-49.94,7.49c-13.06,1.87-26.13,3.74-39.24,5.2-17.35,1.94-34.34,6.88-52.18,5-7.07-.76-14.42,1.71-21.63,1.62-15.89-.21-31.77,1-47.69-1.64s-32.24-2.81-48.2-5.25a321.83,321.83,0,0,1-65-17.11,11.38,11.38,0,0,1-7.32-7.24c-12.15-30.56-33.46-53.12-62.18-68.57-34.61-18.61-72.31-24.9-111-25.95a391.63,391.63,0,0,0-68.39,4.57c-16.35,2.43-32.63,5-48.66,8.84-13.8,3.29-27.34,7.66-40.95,11.72a368.73,368.73,0,0,0-74.78,31.88,92.5,92.5,0,0,1-29.47,10.76c3.48-20.29,13.22-36.17,26.92-49.69s31-21.49,49-27.51c27.42-9.18,56.14-12.3,84.67-14.27,36.11-2.49,72.4-2.25,108.61-3.28,8.55-.24,17.1-.85,26.83-1.34-2.89-5.11-4.55-10.06-7.81-13.47-20.8-21.81-44.78-37.42-76.37-37.48-6.65,0-13.3-.78-19.95-.86-29.05-.37-58.19-.81-84.46,14.56-6.78,4-13,8.94-20.2,14-8-1.56-14.71-6.29-19-14.7,1.85-3.8,3.26-7.58,5.39-10.91,7.15-11.18,10.76-23.47,12.65-36.5,2.56-17.65.93-34.49-8.37-50.08-4.48-7.51-4.11-14.4,1.93-20.64a105.39,105.39,0,0,1,14.06-12.68c23.64-16.93,46.23-34.88,62.35-59.67.93-1.43,3-2.15,6.18-4.36.17,6.42.22,11.22.45,16,.53,10.58,8.55,19.85,18.5,20.21,7.23.26,14.35-.63,21-4.77,16.09-10,32.53-19.41,48.93-28.9,4.29-2.48,9-5.57,14.06-2.79,11.92,6.6,24.21,12.81,35.14,20.82a162.63,162.63,0,0,1,37.77,39.62c9,13.17,18.39,26.13,27.49,39.26.82,1.18.79,2.93,1.49,5.77-6,.29-11.17.69-16.33.76a60.86,60.86,0,0,0-32.93,10.26c-5.57,3.63-8.43,9-6.67,15.42,1.82,6.6,3.57,13.46,9.56,18.16,8.36,6.57,17.22,12.76,24.44,20.46,28.46,30.37,62.85,53.25,96.19,77.46,10.75,7.81,21.79,15.22,32.85,22.58,14.65,9.75,28.79,20.58,44.35,28.6,22.41,11.55,46,20.79,68.92,31.39,12.25,5.67,25.26,7.79,38.38,8.52,19.59,1.09,39.25,1.17,58.89,1.27q51.49.27,103,0c9.3,0,18.7,0,27.87-1.31,17.29-2.4,34.56-5.24,51.66-8.77,26.4-5.45,51.8-13.57,74-29.8,10.24-7.48,21.72-12.49,34.65-13.72,29.53-2.81,57.45,2.34,83.67,16.37,2.82,1.51,5.81,2.69,8.83,4.07,1.2-1.63,2.24-2.57,2.7-3.74,7.68-19.79,21.07-34.95,37.71-47.72,17.79-13.66,37.82-23.13,58-32.34,2.68-1.22,6.4-1.32,7.5-5.66-11.41-1.82-19.59-8.06-27.3-15.91-11.45-11.67-24.24-21.85-39.41-28.57-8.16-3.62-16.31-7.27-24.43-10.89-.24-7,3.2-10,9.24-11.29,17-3.52,30.53-12.8,42-25.5,7.13-7.92,14.43-15.71,21.3-23.85,9.35-11.08,16.45-23.39,19-38,.61-3.52,1.63-7,2.71-11.49,19.77,3.38,38.1,10.52,58.71,11.73-4.13-7.08-7.6-13.06-11.09-19-6.09-10.4-4.8-21.92,3.59-29.95,18.27,16.8,39.29,29.53,61.7,40,10.86,5.07,22.11,9.31,32.87,14.56a51.82,51.82,0,0,1,13.68,9.75c17.41,17.42,30,38,38.72,61,3.51,9.23,8.13,18,18.62,22.21,5.76,2.29,11,6.32,15.89,10.22,2,1.6,3.36,4.88,3.56,7.5.07.94-4,2.79-6.37,3.24-19.59,3.69-38.82,9.7-59.13,8.84-4.28-.18-8.6,1-12.91,1.28-15.64,1.2-30.77,5.07-45.93,8.76-10.34,2.52-21.5,3.42-30.81,8a566.53,566.53,0,0,0-53.38,30.75c-24.88,15.92-44.31,36.81-54.13,65.4-.65,1.9-.7,4-1.33,7.78,2.74-2.27,3.95-3.33,5.22-4.32,10-7.78,20.41-14.18,33.46-16.63a331.47,331.47,0,0,1,81.56-4.91c25,1.52,49.69,5.81,72.59,16.65,19.86,9.4,39.28,19.75,59.1,29.24,24,11.48,41.93,29.21,55.08,52a91.07,91.07,0,0,1,7.06,16.4c7.57,22.37,14.66,44.91,22.39,67.22,3.55,10.24,8.14,20.13,12.39,30.49-2.31,1-3.77,1.77-5.28,2.38-17.55,7.09-35.63,13.13-52.52,21.54-16.17,8.05-29.54,20.31-40.17,35.23-2.88,4-6.36,7.66-9.41,11.6-10.71,13.82-11.58,13-30.43,4-12.58-6-24.18-14.23-37-19.7-28.14-12-56.47-23.69-85.26-34-20.94-7.51-43-12-64.1-19-23.33-7.73-47.16-11.39-71.57-12.06-16-.44-32-.55-47.93-.89-2.94-.06-5.87-.52-8.82-.8.72-5.45.68-5.86,4.27-6.22,13.89-1.41,27.78-3.12,41.71-3.63,17.58-.64,35.2-.21,52.8-.27,18.26-.06,36.52-.27,54.78-.22,29,.08,57.91.47,86.86.46,22.29,0,44.6-.86,66.88-.49,17.33.29,33.71-3.39,49.57-9.63s27.47-25.24,26.43-42.34c-.58-9.46-4.33-17.67-12.05-23.19-9.18-6.56-18.45-13.3-28.54-18.2-18.52-9-37.42-17.39-56.64-24.77-13.58-5.21-27.83-8.83-42-12.26-15-3.63-30.42-2.84-45.73-2.62a163.43,163.43,0,0,0-90.09,28q-50.05,33.37-99.76,67.25c-34.76,23.79-69.51,47.63-103.77,72.14-28.34,20.27-56.15,41.32-83.87,62.45-21.92,16.71-43.62,33.72-64.9,51.22-22.79,18.74-45,38.19-67.38,57.42-1,.87-1.36,2.53-2.25,4.29,7.56.62,14.22.8,20.75,1.78,29.28,4.38,56.79,15,83.36,27.13,31.74,14.45,62,32.19,93.13,48,8.05,4.08,15.25,10.8,25.73,9.3,21.93-3.13,43.84-1.28,65.79.76,31.24,2.9,62,8.75,92.54,15.33,15.33,3.3,30.13,4.83,45.14-.53,4.07-1.45,8.32-2.4,12.39-3.85,25.44-9,51.12-17.17,77.78-21.73,13.73-2.35,27.16-6,41.42-5.88a693.75,693.75,0,0,1,69.71,4.37,683.79,683.79,0,0,1,84.43,15.19,123.75,123.75,0,0,0,60,0c11-2.73,20.53-8.14,22.77-21,.33-1.92,1.68-3.63,2.23-5.54,2.76-9.54,6.09-19,7.88-28.7,1.32-7.11,1.07-14.63.63-21.92a154,154,0,0,0-3.25-25.64c-2.18-9.34-6.19-18.25-8.67-27.54-2.05-7.67-4-15.6-4.3-23.47-.6-18.31-.14-36.65-.11-55a33.9,33.9,0,0,1,4.85-17.68,12.55,12.55,0,0,1,2.5,0c15,3.81,19,1.59,23.17-13.05a17.1,17.1,0,0,0,.66-1.88c3.88-24.33,14.72-46.14,24.95-68.12,2.73-5.87,6.26-11.7,12.67-14.91.38,1,.89,1.64.77,2.13-4.14,17.09-8.43,34.15-12.49,51.26-1.61,6.77-3.48,13.6-3.9,20.49-1,16.91-1.3,33.88-1.92,52.08a71.88,71.88,0,0,1-8.42,4.66,104.92,104.92,0,0,1-10.86,3.28c-1.29,14.75,2.7,29.6,10.34,38.31,1.33-2.89,2.53-5.52,3.75-8.14,3.37-7.24,6.46-14.63,10.2-21.67,8.39-15.8,21.17-29.12,26.43-46.73.45-1.5,1.84-2.72,2.77-4.08,3.73-5.45,8-10.62,11.05-16.44,4.6-8.83,8.06-18.25,12.47-27.2,12.05-24.43,18-50.7,23.27-77.13,2.47-12.34-.23-23.3-11.68-30.43a59.91,59.91,0,0,0-10.93-4.85c-3.43-1.27-5.59-3.22-6.17-7-3.25-21-14.55-39.11-21.56-58.77-5.76-16.16-14.67-31.26-22.94-46.42-4.59-8.41-10.65-16-16.21-23.9-4.42-6.25-9.43-12.09-13.58-18.51-8.81-13.64-20.45-24.42-33.1-34.32C1781.44,1248.89,1777.73,1245.22,1773.84,1241.76Zm-600.33-179.84c5.15-1.68,8.88-.85,11.23,3.93,5.11,10.4,11.41,20.38,15.19,31.24,7.21,20.75,8.56,42,.27,63-1.88,4.75-4.68,9.14-7.7,14.93,3.83-3.38,6.67-5.67,9.26-8.21q18.79-18.48,37.45-37.07c6.83-6.79,6.54-14.62,3-22.78a25.49,25.49,0,0,0-3.48-6c-6-7.44-12.19-14.75-18.28-22.13-8.64-10.48-17.92-20.51-25.66-31.62-6.53-9.37-9.2-20.36-6.16-32.32,12.38-2.71,23.78,8.84,36.14,1.9,2.1-11.64.47-22.21-5.9-32.45-5.9-9.48-13-18.34-16.08-29.51-2.83-10.13-.4-18.18,7.65-24.36,4.13-3.17,9-5.37,13.61-7.92,5.23-2.91,10.5-5.74,13.55-11.94-1.4-3.1-2.84-6.42-4.4-9.67-8.34-17.43-13.54-36-17.42-54.71-6-29.06-10.26-58.49-16.49-87.5-4.29-20-10.09-39.76-21.79-57-2.06-3-5.28-6.15-8.63-7.3a78,78,0,0,0-20.22-4.32c-16.54-1-33.19-2.24-49.68-1.37-18,.95-36,4.25-54,6.34-6.59.77-13.39.31-19.85,1.62-19,3.88-37.82,1.52-56.27-2.35-11.53-2.42-22.29-7.85-30.55-17.4-5.39-6.22-12-11.41-18.36-16.74a12.71,12.71,0,0,0-7.05-3c-23.65-1-47.34-.1-70.08,6.6-23.72,7-43.39,21.21-60.14,39.33-10.17,11-14.69,23.33-9,38.24,5.81,15.15,4.32,30.68.9,46C769.38,811,755.21,830,741.1,848.89c-12.09,16.18-23.94,32.48-32.21,51C716.4,913.28,721.52,927,723.62,942c2.46,17.52,1.91,35.07,2,52.64,0,3.21,0,6.42,0,9.53,10.32,2.49,19.27,4.93,28.34,6.76a36.42,36.42,0,0,1,17.43,8.89c4.39,3.9,5.17,8.05,3.15,13.32-4.1,10.65-10.33,20-17.65,28.59-10.53,12.41-21.75,24.28-31.66,37.16-12.74,16.55-16,35.43-9.55,55.46,5.34,16.52,15.76,29.52,29.23,40.36,18.06,14.54,38.52,24.59,60,32.79,26.9,10.3,54.71,17.36,82.72,24.15a545.25,545.25,0,0,0,80.93,12.88c20.62,1.81,41.68,1.86,62.63-1.08,18.81-2.64,37.1-6.88,54.52-13.91,30.1-12.15,57.12-29.63,81.64-50.91a34.19,34.19,0,0,0,3.81-4.68c-12.15,5.08-23.05,11.65-35.39,15.65-2.8-25.51,2.54-59.65,10.46-68.72,9,3.29,3.2,12.46,6.63,18.16,11.15-2.74,17.55-9.46,21-19.7,4.21-12.61,3.55-25.53,2.76-38.38-.68-11.15-2.43-22.23-3.57-33.35A28.61,28.61,0,0,1,1173.51,1061.92ZM652,1966.6c3.93,1.49,6.93,2.9,10.08,3.77,8.58,2.38,17.16,4.8,25.85,6.73,19.32,4.3,38.62,8.68,58.07,12.31,14.57,2.71,29.35,4.35,44.05,6.36,22.22,3,44.41,6.35,66.7,8.83,14.46,1.61,29.06,2.12,43.61,2.81,13.94.66,27.91,1.4,41.85,1.26,53.18-.53,106.36,1.22,159.55-2.74,24.39-1.81,48.84-3.34,73.25-5.23,5.62-.44,11.27-.73,16.85-1.49,19.91-2.73,39.82-5.51,59.69-8.5,16.92-2.54,33.8-5.39,50.12-8,3.08-9.5,6.07-17.9,8.54-26.46q8.22-28.55,15.91-57.24c.63-2.34-.24-5.08-.49-8.71-7.25.56-13.8,1.14-20.35,1.54-5,.31-10,.87-14.89.48-12.19-1-24.31-3-36.51-3.58-18.52-.92-35.56-6.94-52.72-13.12-12.78-4.6-25.86-8.33-38.81-12.45-2.52-.8-5.12-1.4-7.54-2.43-10.1-4.29-20.18-8.61-30.18-13.1-6.94-3.12-13.64-6.8-20.63-9.81q-24.2-10.43-48.58-20.44c-8.54-3.52-17.31-6.5-25.82-10.1-14.1-6-28.22-11.9-43.5-14-23.33-3.24-46.55-7-70.32-6.94-21.12.05-41.77,2.16-61.77,8.54-23.38,7.46-46.45,15.9-69.61,24.05-13.75,4.84-27.31,10.25-41.15,14.83-10.33,3.42-20.8,7.32-31.49,8.55-17.75,2-35.72,2.2-53.6,3-7,.29-14,0-21,.1a53.35,53.35,0,0,0-6.87,1C639.09,1886.39,654.37,1924.44,652,1966.6Zm384.74,181c6.78,1.31,11.5,2.7,16.3,3.06,9.89.73,20.05,2.45,29.67,1,17.55-2.7,30.41-12.81,36.87-29.91,6.4-16.95,5.72-33.91-.82-50.6-5-12.65-14.49-20.61-27.52-24-11.94-3.07-23.87-2.33-35.07,3.07-19.15,9.24-21.47,23.67-18.73,39.76s17,26.61,34,26.25c7.89-.17,15-2.23,20.85-8,2.84-2.82,5.92-5.66,10.08-2-2.28,12.88-10.22,24.13-20.63,25.7-11.65,1.76-24.75,5.25-32.84-11.48Zm-123.87-50.81c5.91-5.61,10.5-10.62,10.84-18.41.7-16.18-8.77-28.06-25.84-31.39-14.52-2.83-28.45-.79-41.87,5.43-4.7,2.17-9.61,3.89-15.14,6.1,3.08,8.6,5.87,17.68,12.93,25,8-13.58,20.38-16.64,34.28-16.31a21.51,21.51,0,0,1,6.72,1.75c5.25,2,5.07,6.45,4.67,10.87s-3.5,6.15-7.59,6.25c-6.1.15-12.32,1-18-3.59-2.16,10-3.66,19-1,28.39a24.14,24.14,0,0,1,19.82-3.1c6.56,1.83,10.6,6.6,10,11.89-.6,5.73-4.69,9.59-11.72,10.28-12,1.19-23.33-1.21-33.18-8.26-3-2.13-4.65-6.09-6.84-9.27-.79-1.15-1.36-2.45-2.66-4.84-6.38,11.23-10.83,21.57-11.79,32,5.23,1.83,9.28,2.92,13,4.63a91.61,91.61,0,0,0,42.65,8.53c9.26-.42,17.7-3.23,24.74-9.4,13.53-11.84,13.33-30.59-.29-42.28A48.49,48.49,0,0,1,912.92,2096.75Zm388.15,37.92c-7.92-5-8.33-12-9.47-18.41-3.62-20.22-6.69-40.54-10.32-60.75-1.42-7.91-4.19-15.65,1-24.2-12,.42-22.64.92-32.4,6l5.75,10.59c-3.05,2.2-5.22,4.56-7.88,5.43-2.17.71-4.92-.35-7.42-.63-1.31,11.93,1.08,23.08,6.38,29.6,2.54-4.84,6-8.55,11.45-9.81,8.16,11.61,13.86,53,9.28,68.13C1278.61,2141.93,1289,2140.17,1301.07,2134.67ZM673.55,2042.3a69.12,69.12,0,0,0-5.51,32.27c5-6.06,9.81-8.15,16-7.66,2.75,12.08-.32,23.36-3,34.54s-3.86,23.27-11.77,33.59c10.54,3.76,20.75,6.26,30.92,5.13-.31-5.47-1.32-9.74-.66-13.74q6.39-38.37,13.55-76.6c.85-4.52,3.56-8.69,5.44-13.11-9.09-4.83-18.28-6.44-30-5.07,1.57,8.89,1.51,11.21-1.43,12.48a22,22,0,0,1-8.67,1.88C676.9,2046,675.46,2043.85,673.55,2042.3Z" transform="translate(-20 -20.35)"/><path class="cls-2" d="M1773.84,1241.76c3.89,3.46,7.6,7.13,11.69,10.33,12.65,9.9,24.29,20.68,33.1,34.32,4.14,6.41,9.16,12.26,13.58,18.51,5.56,7.86,11.62,15.49,16.21,23.9,8.27,15.16,17.18,30.27,22.94,46.42,7,19.66,18.31,37.77,21.56,58.77.59,3.79,2.75,5.74,6.17,7a59.91,59.91,0,0,1,10.93,4.85c11.45,7.13,14.15,18.1,11.68,30.43-5.29,26.43-11.22,52.7-23.27,77.13-4.41,8.94-7.87,18.36-12.47,27.2-3,5.82-7.32,11-11.05,16.44-.93,1.36-2.33,2.58-2.77,4.08-5.25,17.61-18,30.93-26.43,46.73-3.74,7-6.83,14.43-10.2,21.67-1.22,2.62-2.42,5.25-3.75,8.14-7.64-8.71-11.62-23.56-10.34-38.31a104.92,104.92,0,0,0,10.86-3.28,71.88,71.88,0,0,0,8.42-4.66c.62-18.2.88-35.16,1.92-52.08.42-6.89,2.29-13.73,3.9-20.49,4.06-17.11,8.35-34.17,12.49-51.26.12-.49-.39-1.14-.77-2.13-6.42,3.21-9.95,9-12.67,14.91-10.23,22-21.06,43.8-24.95,68.12a17.1,17.1,0,0,1-.66,1.88c-4.19,14.65-8.13,16.86-23.17,13.05a12.55,12.55,0,0,0-2.5,0,33.9,33.9,0,0,0-4.85,17.68c0,18.33-.49,36.68.11,55,.26,7.87,2.25,15.79,4.3,23.47,2.48,9.29,6.49,18.19,8.67,27.54a154,154,0,0,1,3.25,25.64c.44,7.28.69,14.81-.63,21.92-1.8,9.72-5.12,19.16-7.88,28.7-.55,1.9-1.9,3.62-2.23,5.54-2.23,12.86-11.75,18.27-22.77,21a123.75,123.75,0,0,1-60,0,683.79,683.79,0,0,0-84.43-15.19,693.75,693.75,0,0,0-69.71-4.37c-14.26-.17-27.69,3.53-41.42,5.88-26.65,4.56-52.34,12.72-77.78,21.73-4.07,1.44-8.32,2.39-12.39,3.85-15,5.36-29.81,3.83-45.14.53-30.57-6.58-61.3-12.43-92.54-15.33-22-2-43.86-3.89-65.79-.76-10.48,1.5-17.67-5.23-25.73-9.3-31.16-15.77-61.39-33.5-93.13-48-26.56-12.1-54.08-22.75-83.36-27.13-6.54-1-13.19-1.15-20.75-1.78.89-1.75,1.23-3.41,2.25-4.29,22.39-19.22,44.59-38.68,67.38-57.42,21.28-17.5,43-34.51,64.9-51.22,27.72-21.13,55.52-42.17,83.87-62.45,34.26-24.5,69-48.34,103.77-72.14q49.64-34,99.76-67.25a163.43,163.43,0,0,1,90.09-28c15.31-.21,30.74-1,45.73,2.62,14.17,3.43,28.42,7.05,42,12.26,19.22,7.38,38.12,15.76,56.64,24.77,10.09,4.91,19.36,11.64,28.54,18.2,7.72,5.52,11.47,13.73,12.05,23.19,1,17.09-10.5,36.08-26.43,42.34s-32.24,9.91-49.57,9.63c-22.29-.37-44.59.49-66.88.49-29,0-57.91-.38-86.86-.46-18.26-.05-36.52.15-54.78.22-17.6.06-35.22-.38-52.8.27-13.93.51-27.83,2.22-41.71,3.63-3.59.37-3.55.77-4.27,6.22,3,.28,5.89.73,8.82.8,16,.34,32,.45,47.93.89,24.41.67,48.24,4.33,71.57,12.06,21.14,7,43.16,11.48,64.1,19,28.79,10.32,57.13,22,85.26,34,12.79,5.46,24.4,13.66,37,19.7,18.85,9,19.72,9.82,30.43-4,3-3.94,6.53-7.55,9.41-11.6,10.63-14.93,24-27.18,40.17-35.23,16.89-8.41,35-14.45,52.52-21.54,1.51-.61,3-1.33,5.28-2.38-4.25-10.37-8.85-20.25-12.39-30.49-7.72-22.32-14.82-44.85-22.39-67.22a91.07,91.07,0,0,0-7.06-16.4c-13.16-22.77-31.11-40.49-55.08-52-19.82-9.49-39.23-19.84-59.1-29.24-22.91-10.84-47.58-15.13-72.59-16.65a331.47,331.47,0,0,0-81.56,4.91c-13.05,2.45-23.43,8.85-33.46,16.63-1.27,1-2.48,2-5.22,4.32.62-3.79.67-5.89,1.33-7.78,9.81-28.59,29.25-49.48,54.13-65.4a566.53,566.53,0,0,1,53.38-30.75c9.31-4.62,20.47-5.52,30.81-8,15.16-3.69,30.29-7.57,45.93-8.76,4.32-.33,8.64-1.46,12.91-1.28,20.3.85,39.54-5.15,59.13-8.84,2.37-.45,6.44-2.3,6.37-3.24-.2-2.63-1.54-5.91-3.56-7.5-4.93-3.9-10.13-7.93-15.89-10.22-10.5-4.17-15.12-13-18.62-22.21-8.77-23.06-21.31-43.59-38.72-61a51.82,51.82,0,0,0-13.68-9.75c-10.76-5.25-22-9.49-32.87-14.56-22.42-10.46-43.43-23.19-61.7-40-8.39,8-9.68,19.54-3.59,29.95,3.49,6,7,11.94,11.09,19-20.61-1.21-38.95-8.35-58.71-11.73-1.08,4.52-2.1,8-2.71,11.49-2.54,14.56-9.63,26.87-19,38-6.87,8.14-14.16,15.93-21.3,23.85-11.43,12.7-25,22-42,25.5-6,1.25-9.48,4.32-9.24,11.29,8.11,3.62,16.26,7.27,24.43,10.89,15.17,6.72,28,16.9,39.41,28.57,7.7,7.85,15.89,14.08,27.3,15.91-1.1,4.35-4.81,4.44-7.5,5.66-20.22,9.21-40.26,18.68-58,32.34-16.64,12.78-30,27.94-37.71,47.72-.45,1.17-1.5,2.11-2.7,3.74-3-1.39-6-2.56-8.83-4.07-26.22-14-54.14-19.17-83.67-16.37-12.93,1.23-24.41,6.24-34.65,13.72-22.21,16.23-47.61,24.35-74,29.8-17.1,3.53-34.36,6.36-51.66,8.77-9.18,1.27-18.57,1.27-27.87,1.31q-51.49.21-103,0c-19.63-.1-39.29-.18-58.89-1.27-13.11-.73-26.13-2.86-38.38-8.52-22.92-10.6-46.51-19.84-68.92-31.39-15.57-8-29.7-18.84-44.35-28.6-11.06-7.36-22.1-14.78-32.85-22.58-33.34-24.21-67.74-47.09-96.19-77.46-7.21-7.7-16.08-13.89-24.44-20.46-6-4.71-7.74-11.57-9.56-18.16-1.76-6.38,1.11-11.79,6.67-15.42A60.86,60.86,0,0,1,618.41,1158c5.16-.08,10.32-.47,16.33-.76-.7-2.83-.68-4.59-1.49-5.77-9.1-13.13-18.45-26.09-27.49-39.26A162.63,162.63,0,0,0,568,1072.62c-10.94-8-23.23-14.23-35.14-20.82-5-2.78-9.77.3-14.06,2.79-16.39,9.49-32.84,18.91-48.93,28.9-6.68,4.15-13.79,5-21,4.77-9.95-.36-18-9.63-18.5-20.21-.24-4.79-.28-9.58-.45-16-3.21,2.21-5.25,2.93-6.18,4.36-16.12,24.79-38.71,42.74-62.35,59.67a105.39,105.39,0,0,0-14.06,12.68c-6,6.24-6.41,13.13-1.93,20.64,9.3,15.59,10.93,32.43,8.37,50.08-1.89,13-5.5,25.31-12.65,36.5-2.13,3.33-3.54,7.11-5.39,10.91,4.29,8.41,11,13.13,19,14.7,7.23-5,13.42-10,20.2-14,26.28-15.38,55.41-14.93,84.46-14.56,6.65.08,13.3.85,19.95.86,31.58.06,55.57,15.67,76.37,37.48,3.26,3.42,4.91,8.36,7.81,13.47-9.73.5-18.27,1.1-26.83,1.34-36.21,1-72.5.79-108.61,3.28-28.53,2-57.24,5.1-84.67,14.27-18,6-35.24,13.92-49,27.51s-23.44,29.4-26.92,49.69a92.5,92.5,0,0,0,29.47-10.76,368.73,368.73,0,0,1,74.78-31.88c13.61-4.06,27.15-8.43,40.95-11.72,16-3.82,32.31-6.41,48.66-8.84a391.63,391.63,0,0,1,68.39-4.57c38.73,1.05,76.43,7.34,111,25.95,28.73,15.45,50,38,62.18,68.57a11.38,11.38,0,0,0,7.32,7.24,321.83,321.83,0,0,0,65,17.11c16,2.44,32.28,2.61,48.2,5.25s31.8,1.44,47.69,1.64c7.21.09,14.56-2.37,21.63-1.62,17.84,1.9,34.83-3,52.18-5,13.11-1.47,26.18-3.33,39.24-5.2q25-3.58,49.94-7.49c25.72-4.07,51.37-8.55,77.12-12.38,14.68-2.19,29.54-3.15,44.26-5.17,32.6-4.47,65.36-6,98.21-5.87a475.62,475.62,0,0,1,75.21,6,26.13,26.13,0,0,1,4.68,1.45c.91.33,1.75.88,4.3,2.2-11.22,7.56-20.85,14-30.37,20.49-16.85,11.56-35.52,19.34-54.1,27.59-14.17,6.3-27.18,15.32-40.44,23.55q-32.22,20-64,40.64a196,196,0,0,0-17.52,13.26,20.75,20.75,0,0,0-5.67,6.84c-11.09,23.66-28.46,42.34-46.61,60.6-15,15.07-32.56,25.8-51.18,35.74-20.81,11.11-40.23,24.79-60.6,36.76-31.56,18.55-63.23,36.94-97.6,50.05a56.14,56.14,0,0,0-12.33,6.54c-15.74,11.15-33.82,16.91-51.71,23.24a93.51,93.51,0,0,0-16.31,7.25c-20.89,12.32-43.74,19.34-66.94,25.44-12.84,3.37-25.89,6-38.67,9.55-16.71,4.68-33.37,4.54-50.38,2-10.81-1.59-21.89-1.22-32.76-2.48-21.1-2.45-42.32-1.91-63.5-5.16a448.19,448.19,0,0,0-89.55-4.59c-7.57.36-15.06,2.5-22.57,3.91-20.54,3.85-41.16,7.34-61.58,11.76-15.56,3.37-31.26,6.83-46.15,12.28-17.19,6.29-34.42,6.06-52.11,5.42-13.24-.48-21-6.05-25.41-18.77s-10.58-25.15-16.51-37.43c-9.7-20.09-19.7-40.08-34.5-57.08-5.9-6.78-12-13.43-18.5-19.61-13.21-12.56-21.38-28.8-32.07-43.17-14.68-19.74-28-40.47-42.38-60.47-9.91-13.82-13.87-29.3-14.66-45.87-1.61-33.82,1.33-67.29,10.88-99.76,3.6-12.25,9-24.77,16.66-34.87,24.88-32.92,51.22-64.74,76.89-97.08,7.85-9.89,16.37-19.45,22.75-30.25,9.17-15.52,15.89-32.08,15.17-51-.44-11.57.86-23.23,1.59-34.83,1.26-20.07-2.69-39.71-4.38-59.55-1.29-15.21-1.89-30.69-.61-45.87,1.55-18.45,13-32,29.67-38.17,22.35-8.34,44.54-17.79,68.33-21.8,5.23-.88,10.56-1.13,15.84-1.74,4.6-.53,9.19-1.17,13.78-1.76,5.92-.75,11.82-1.67,17.76-2.18a184.18,184.18,0,0,0,31.29-5c15.05-3.94,30.56-6.14,45.87-9.12,2.61-.51,5.19-1.14,7.77-1.76,15.17-3.68,30.17-8.38,45.54-10.78,16.71-2.61,33.79-3.07,50.57.57,7.67,1.66,14.23.15,18.37-6.56a216.59,216.59,0,0,0,12.52-23.57c5.59-12.22,12.88-22.73,26.82-25.62,11.72-2.42,23.23.08,33.55,5.94,20.08,11.41,38.42,25.41,52.2,44,10.39,14,15.06,30.06,11.47,48.45-3.13,16-8.31,31.18-13.57,46.44-6.15,17.84-11.51,35.77-10.31,55.06.8,12.83,4.8,24.58,10.68,35.76,16.49,31.35,42.71,52.86,72.53,70.43,26.35,15.52,54.61,26.64,83.74,35.92,23.68,7.55,48,12.19,72.21,17.07,11.3,2.27,23,2.71,34.57,3.48,14.22,1,28.46,1.52,42.7,2,26,.9,51.39-3.14,76.62-9,23.19-5.36,45.28-13.39,63.84-28.51,11-8.94,20.83-19.36,30.53-29.74,12.75-13.65,25.68-27.11,42.73-35.24,10.7-5.11,22.19-8.57,33.29-12.85,10.56-4.06,20.94-8.39,29.77-15.81,13.69-11.5,16.56-26.26,13.81-43-2.06-12.5-9.55-22.34-15.84-32.72-18.19-30-19.67-61.26-7.51-93.63,2.82-7.49,3.48-14.6-1.62-21.6-3.88-5.33-8.08-10.91-6.61-18.11.69-3.38,1.7-7.42,4-9.62,12-11.29,26.28-17.25,42.9-18.2,33.83-1.93,58.95,13.74,80.87,37.66,10.18,11.11,14.32,23.53,14.35,38,0,5.67-.17,11.34.08,17a26.71,26.71,0,0,0,1.67,8.69c3.31,8.15,6.76,9.88,14.66,6.28,9.94-4.53,19.49-9.92,29.22-14.92,2.65-1.36,5.2-3.1,8-4,17.17-5.26,34.27-10.83,51.67-15.23,8.61-2.18,17.79-2.67,26.74-2.89,17.65-.43,35.33.15,53-.22a172.26,172.26,0,0,1,42.56,4.62c24,5.52,48.21,9.9,72,16,30.52,7.77,58.44,21.31,79.12,45.7a126.07,126.07,0,0,1,20.87,35.94c8.06,21,15.1,42.71,19.85,64.7,3.21,14.86,6.15,30.75-.1,46.14-4.57,11.27-13.51,16.67-24.63,19.68-5.32,1.44-10.49,3.44-15.73,5.19ZM1063.4,1556.42c-1.75-.38-2.42-.74-3-.62-2.94.59-5.87,1.22-8.77,2-61.59,16-124.29,23-187.82,23.75-4.89.05-10.2.57-14.55,2.55-9,4.13-18.45,8.3-26.15,14.41-21.19,16.81-46.92,23.55-71.36,32.59-17.29,6.4-36.25,8.38-54.56,11.86-22.53,4.29-45.06,8.87-68.21,8.25-18.3-.49-36.6-1.31-54.9-1.41-22.5-.12-44.11-5.29-65.81-10.29s-42.74-12.44-63.71-20.09c-36.6-13.33-73.45-25.93-107.69-44.87a31.7,31.7,0,0,0-4.48-1.53c.85,11.43,2.57,21.65,7.34,31.33,8.4,17,16.9,33.88,27.8,49.56,10.49,15.08,3.05,30.49-15,32.59a29.44,29.44,0,0,1-9.9-.38c-18.77-4.37-37.74-8.16-56.13-13.81-16.86-5.18-31.32-14.86-40.63-30.58-5.42-9.15-10.36-18.59-15.55-27.88-1.48-2.64-3.06-5.23-4.59-7.84l-2.32.83c.33,6.85.51,13.71,1,20.54.61,8,1.77,15.87,2.23,23.83.5,8.72-3.46,15-12.1,17.13-5.86,1.44-7,5.42-7.41,10.3-.6,7,3,12.32,7.75,16.63,14.8,13.41,28.87,27.94,45.08,39.39,23.06,16.3,47.75,30.31,71.84,45.14,2.94,1.81,6.49,2.61,8.77,3.5,4.55-7.28,7.43-14.34,12.38-19.34,13.45-13.58,30.38-17.55,48.75-13.32,18.13,4.18,35.88,10.1,54.06,14,28.92,6.24,58.06,11.43,87.09,17.1,16.83,3.29,33.65,3.35,50.67,1.16,22.56-2.91,43.79-10.94,65.79-16,3.71-.85,7.91-1.59,9.42-7.09-5-1.4-9.91-2.31-14.44-4.1-13.28-5.23-26.47-10.7-39.6-16.3-4-1.69-6.74-4.8-5.15-9.5,1.39-4.1,5-4.54,9-4.67,44.56-1.42,89.17.82,133.75-3.44a170.33,170.33,0,0,0,51-12.82,271.34,271.34,0,0,0,56.7-33.28c23.94-18,47.41-36.81,72.46-53.18,27.28-17.83,57.41-29.24,90.74-30.16,4.37-.12,9.58-1.39,12.85-4C1046.88,1579.5,1054.94,1568.08,1063.4,1556.42ZM1735,1814.6c21.12-54.27,25.92-109.89,20.48-167a30.33,30.33,0,0,0-5.86,8.6c-4.94,11.28-10,22.52-18.7,31.47-6.66,6.88-14.11,13-20.95,19.7-18.25,17.94-41.83,24.65-65.44,31.27-3.15.88-6.93.15-9.75,1.53-13.36,6.53-28.17,7.65-42.17,11.74a34.33,34.33,0,0,1-11.86,1c-7.92-.57-11.93-6.59-9.4-14a40.91,40.91,0,0,1,5.07-9.67c6-8.78,12.45-17.28,18.41-26.1s11.11-18,11.6-28.62c-14.07,3.77-28,7.7-42,11.2-24.16,6-48.1,12.78-72.75,17.08-25.06,4.37-50,7.37-75.37,5.61q-24.38-1.7-48.76-3.52c-4.31-.33-8.58-1-12.88-1.45-7.6-.77-15.19-1.57-22.8-2.21-17.91-1.51-36-1.88-53.69-4.64-23.29-3.63-46.44-8.26-68.58-17.15-16.37-6.57-31.55-14.26-41.83-29.27a5.85,5.85,0,0,0-1.46-1.31c-9.23,8.13-17.5,17-27.29,23.6-10,6.73-21.39,11.25-32.79,17,5.15,3.05,11,4.41,17.3,5.13,17.52,2,35.17,3.48,52.48,6.69,12.41,2.3,23.77,7.93,32.71,17.69,8.46,9.24,6.46,27-11.83,29.73-9.18,1.36-18.54,1.54-27.81,2.24-2.13.16-4.27.26-8.82.54,3.33,2.18,4.48,3.2,5.82,3.77,8.26,3.5,16.44,7.27,24.88,10.28,24.12,8.6,47.88,18.41,73.42,22.34,22,3.39,44.17,6.18,66.1,10.16,34.55,6.27,68.37,1.32,101.92-6,20.62-4.53,41.23-7.39,62.31-7.31,26.32.1,52.65.35,79-.07,26.8-.43,53.19,3.18,79.47,7.5C1681.11,1796.73,1708,1805.45,1735,1814.6Zm8-415.21,14.17,24.85c2.62-1,3.94-1.28,5.11-1.89,22.75-11.71,45.42-23.6,68.28-35.1,5.83-2.93,10.51-6.57,13.88-12.91l-43.86-78.83c-5.7,2.9-10.87,5-15.51,8-8.49,5.41-16.57,7.76-24.75-.44a12.16,12.16,0,0,0-4.41-2.28c-9.92-3.69-19.87-7.3-30.82-11.31-3.16-13.27-6.9-27.37-9.76-41.65-1.49-7.44-4.49-12.93-12.83-16.18L1598.84,1336.8c4.93,5.91,9.71,8.55,16.88,8.54,14.24,0,28.49,1.31,42.64,2.08C1672.3,1387.53,1703.52,1399.45,1743,1399.4Z" transform="translate(-20 -20.35)"/><path class="cls-2" d="M1173.51,1061.92a28.61,28.61,0,0,0-.5,5.65c1.14,11.12,2.89,22.2,3.57,33.35.78,12.85,1.45,25.77-2.76,38.38-3.42,10.25-9.81,17-21,19.7-3.43-5.71,2.35-14.87-6.63-18.16-7.92,9.07-13.25,43.21-10.46,68.72,12.34-4,23.24-10.57,35.39-15.65a34.19,34.19,0,0,1-3.81,4.68c-24.52,21.28-51.54,38.76-81.64,50.91-17.42,7-35.71,11.27-54.52,13.91-20.95,2.94-42,2.89-62.63,1.08a545.25,545.25,0,0,1-80.93-12.88c-28-6.79-55.81-13.85-82.72-24.15-21.44-8.2-41.9-18.26-60-32.79-13.47-10.85-23.89-23.84-29.23-40.36-6.47-20-3.2-38.91,9.55-55.46,9.92-12.88,21.14-24.75,31.66-37.16,7.31-8.62,13.55-17.94,17.65-28.59,2-5.27,1.25-9.42-3.15-13.32a36.42,36.42,0,0,0-17.43-8.89c-9.07-1.83-18-4.27-28.34-6.76,0-3.11,0-6.32,0-9.53-.13-17.56.42-35.12-2-52.64-2.1-15-7.22-28.71-14.74-42.09,8.27-18.52,20.12-34.83,32.21-51C755.21,830,769.38,811,774.67,787.43c3.42-15.29,4.92-30.83-.9-46-5.72-14.9-1.2-27.24,9-38.24,16.76-18.12,36.42-32.34,60.14-39.33,22.75-6.7,46.43-7.58,70.08-6.6a12.71,12.71,0,0,1,7.05,3c6.34,5.33,13,10.52,18.36,16.74,8.27,9.54,19,15,30.55,17.4,18.45,3.87,37.26,6.22,56.27,2.35,6.46-1.32,13.25-.86,19.85-1.62,18-2.09,35.92-5.39,54-6.34,16.5-.87,33.15.36,49.68,1.37a78,78,0,0,1,20.22,4.32c3.35,1.15,6.57,4.25,8.63,7.3,11.69,17.26,17.5,37,21.79,57,6.23,29,10.47,58.44,16.49,87.5,3.88,18.76,9.08,37.28,17.42,54.71,1.56,3.26,3,6.58,4.4,9.67-3.05,6.21-8.32,9-13.55,11.94-4.59,2.55-9.48,4.75-13.61,7.92-8.05,6.19-10.49,14.23-7.65,24.36,3.13,11.17,10.19,20,16.08,29.51,6.38,10.24,8,20.82,5.9,32.45-12.37,6.94-23.76-4.62-36.14-1.9-3,12-.38,22.95,6.16,32.32,7.74,11.1,17,21.14,25.66,31.62,6.09,7.38,12.27,14.69,18.28,22.13a25.49,25.49,0,0,1,3.48,6c3.49,8.16,3.78,16-3,22.78q-18.69,18.58-37.45,37.07c-2.59,2.55-5.43,4.83-9.26,8.21,3-5.79,5.82-10.18,7.7-14.93,8.3-21,6.94-42.29-.27-63-3.77-10.86-10.08-20.84-15.19-31.24C1182.39,1061.07,1178.66,1060.24,1173.51,1061.92Zm-84.7-57.63c-4.49-2.41-7.18-4.26-10.15-5.39-23.11-8.79-46.91-15.07-71.53-17.56-42.08-4.25-82.94,3-123.28,14.19a49.6,49.6,0,0,0-9.26,3.71c-5.35,2.74-5.77,4.28-3.7,11.38-3.94,2.76-8.12,5.48-12,8.5a149.15,149.15,0,0,0-12.27,10.23c-13.18,12.59-13.19,14.75-5.23,30.68a70,70,0,0,1,6.51,44.41c-3.07,17.73-10.18,33.41-19.9,48.33-7.72,11.85-5.9,25.26,3.53,35.59,7.78,8.52,18,13.38,27.72,19,2.06,1.19,3.92,2.71,7.63,5.3l-16.8.86c1.08,8.32,4.38,12.36,12.28,14,8.4,1.78,17.19,2,25.4,4.29a284,284,0,0,0,65.74,10.21c36.67,1.6,73.12.6,108.92-9,9.57-2.56,19.51-3.69,29.2-5.82,8-1.75,11.12-5.74,11.4-13.73l-17.36-1c3.48-2.42,5.17-3.81,7.05-4.87,6.37-3.56,12.89-6.86,19.21-10.52,21.41-12.41,20.79-30.84,14.24-49.22-2.93-8.22-9.21-15.27-14.17-22.72-10.94-16.43-12.66-33.36-4-51.43,4.7-9.78,9.95-19.51,10.54-32.14l-37.64-31.31ZM943,760.68c0-5.33-.26-10.68.07-16a14.64,14.64,0,0,0-5.09-12.51,142.91,142.91,0,0,0-19.25-13.62c-13.87-8.13-29-10.07-45-9.75-9.57.19-17.46,2.48-24.61,8.26-2.55,2.06-4.5,4.92-7.18,6.77-8.7,6-14.79,14.27-20.17,23-7.54,12.27-6.78,29.8,1.69,38.19a294.21,294.21,0,0,0,23.51,21.44C864.17,820.27,875,838.07,881,859c3.8,13.36,6.58,27,10.35,40.39a71.52,71.52,0,0,0,12.11,24.77c12.35,16.07,35.45,14.7,49.86,2.82,2.66-2.2,5.53-5.77,5.81-8.94,1.24-13.8,9-24,16.73-34.58,2.19-3,3.32-7.2,3.68-11,1.41-14.91-.5-29.15-9.37-41.91-4.16-6-7.77-12.39-11.38-18.74C949.71,796,938.88,780.61,943,760.68Zm50.56,102.75c-2.38,9.29,1.21,17.11,7.15,24.5,6.15,7.66,10.17,16.37,10.62,26.44a16.55,16.55,0,0,0,7.93,13.31c23.66,15,43.21,9.94,55.73-14,6.18-11.83,8.63-25.61,12.67-38.53,4.65-14.84,9.43-29.44,18.42-42.6,11.14-16.3,27.51-26.69,41.68-39.54,4.78-4.33,10.33-8.13,11.36-14.56,1.82-11.31,1.79-22.86-6-32.34a304,304,0,0,0-23.3-25.61c-4.11-4-9.78-8.14-15.09-8.65-18.51-1.79-37.29-2.83-54.49,6.79-4,2.22-7.47,5.39-11.59,7.26-10.47,4.74-13.75,12.63-14,23.89-.75,32.53-1.11,32.56-14.86,55.52-3.07,5.13-7,9.72-10.12,14.84C1001.55,833.42,991.46,846,993.52,863.43Zm-38.52,69c-2.2,1.33-4.45,2.6-6.61,4-9.84,6.34-20,11.66-31.73,14-4.38.87-7.92.49-11-2.5a93,93,0,0,1-9.54-10c-21-27.4-33.12-59.66-48.73-90-7-13.54-12.26-28-23.23-39.17-8.3-8.42-18.7-12.09-29.91-9-21.56,6-35.59,30.88-35.28,48.3.19,10.83,3.6,15,14.44,16.16A17.89,17.89,0,0,0,793,847.05c.06-3.32-.21-6.76.57-9.92,1.26-5.11,7.29-7.91,12.89-6.57,4.55,1.09,5.51,3.69,4.57,10.32-1.63,11.48-3,23-4.47,34.51A106.49,106.49,0,0,0,812.72,929c6.8,17.4,24.5,30.26,43.11,29.18,10.58-.62,21.14-1.72,32-2.62,1.92,1.74,4,3.86,6.31,5.65,12.62,9.79,31.51,9.44,43.18-1.33C945.33,952.53,952.23,944.1,955,932.43Zm51.06-1.26-1.6,1.71c4.23,6.7,8.39,13.44,12.7,20.09,9.25,14.26,32,20.39,46.8,10,2.93-2.05,7.46-2.93,11.1-2.62,8.23.69,16.32,2.83,24.55,3.71,24.76,2.66,42.3-7.25,51.39-27,7.8-17,9.35-35.13,7.53-53.5-1.28-12.85-3.5-25.59-5.19-38.4-.59-4.46-.2-8.68,4.63-10.95,8.71-4.1,17,.81,17.63,10.43.12,2,0,4,0,6,.08,11.42,5.65,17.39,17.25,18.5,9.52.91,13.85-3.35,14.84-13,1.32-12.89-4.59-23-10.75-33.42-4.81-8.15-10.93-13.69-19.81-17.08-14.45-5.53-33.81.48-41.43,14.19-10.78,19.41-20.57,39.38-31.78,58.53-12.22,20.87-22.23,43.2-37.93,61.84-13.25,15.72-19.52,16-35.62,6C1022.29,941.14,1014.17,936.16,1006.06,931.16ZM800.94,1159c-12.53-4.28-16.79-7.66-19.57-14.77-5.86-15-4.86-30.64-4-46.17.62-10.8,2.35-21.53,3.45-32.31.12-1.2-.59-2.49-1-4.12h-9.78c-3.68,7.45-7.4,14.52-10.72,21.77-10.55,23-15.94,46.5-8.53,71.87a45.2,45.2,0,0,0,12.72,21,199,199,0,0,0,27.64,20.91,109.05,109.05,0,0,0,29.3,13.08c-1.07-10.55-1.86-19.7-3-28.82-1.14-9.5-3.18-18.94-3.65-28.47-.3-6.21-2.64-9.82-8-12.17C799.86,1145.48,802.6,1152.5,800.94,1159Zm369.4-144c1.85,4.31,2.09,10.11,8.07,8.75,5.59-1.27,4.26-6.57,4.57-10.79.51-6.92,1.32-13.82,2-20.73.22-2.31.89-4.73.45-6.92s-1.6-4.81-3.2-5.49-4.34.45-6.27,1.42c-1.37.68-2.37,2.3-3.31,3.66-12.57,18.22-26.66,35.43-36.3,55.61-10.07,21.06-14.32,43-11.23,66.21,1.28,9.63,6.15,13.89,15,14.53C1139.44,1083.15,1148.1,1047.72,1170.34,1014.95ZM813.57,1122.38c10.32-2.78,14.4-8.72,15.25-16.38,2-18.26.3-36.09-6.35-53.54-10-26.11-26.24-47.88-44.77-68.24a36.57,36.57,0,0,0-8.56-6.78c-4.2-2.45-8.6.32-7.88,5,1.2,7.83,2.78,15.62,4.66,23.31.47,1.92,2.46,4.39,4.19,4.82s4.12-1.21,5.83-2.47c1.12-.83,1.53-2.61,2.35-4.15C803.29,1039.32,812.57,1079.15,813.57,1122.38Z" transform="translate(-20 -20.35)"/><path class="cls-2" d="M652,1966.6c2.33-42.16-13-80.21-21.7-120.22a53.35,53.35,0,0,1,6.87-1c7-.13,14,.2,21-.1,17.89-.75,35.86-.91,53.6-3,10.69-1.23,21.16-5.13,31.49-8.55,13.84-4.58,27.4-10,41.15-14.83,23.16-8.15,46.23-16.59,69.61-24.05,20-6.38,40.65-8.49,61.77-8.54,23.76-.06,47,3.69,70.32,6.94,15.28,2.12,29.4,8.07,43.5,14,8.51,3.6,17.28,6.57,25.82,10.1q24.36,10,48.58,20.44c7,3,13.69,6.69,20.63,9.81,10,4.5,20.09,8.82,30.18,13.1,2.42,1,5,1.63,7.54,2.43,12.95,4.12,26,7.85,38.81,12.45,17.16,6.18,34.21,12.2,52.72,13.12,12.2.6,24.32,2.6,36.51,3.58,4.92.39,9.93-.17,14.89-.48,6.56-.41,13.11-1,20.35-1.54.25,3.62,1.12,6.37.49,8.71q-7.69,28.69-15.91,57.24c-2.46,8.56-5.45,17-8.54,26.46-16.32,2.62-33.2,5.47-50.12,8-19.87,3-39.78,5.77-59.69,8.5-5.58.76-11.23,1.05-16.85,1.49-24.41,1.89-48.86,3.42-73.25,5.23-53.19,4-106.37,2.21-159.55,2.74-13.95.14-27.91-.6-41.85-1.26-14.55-.69-29.15-1.19-43.61-2.81-22.28-2.48-44.48-5.8-66.7-8.83-14.7-2-29.48-3.65-44.05-6.36-19.45-3.62-38.76-8-58.07-12.31-8.69-1.93-17.27-4.35-25.85-6.73C659,1969.5,656,1968.09,652,1966.6Z" transform="translate(-20 -20.35)"/><path class="cls-2" d="M1036.79,2147.56l12.21-27.11c8.1,16.73,21.2,13.24,32.84,11.48,10.4-1.57,18.35-12.82,20.63-25.7-4.15-3.7-7.24-.86-10.08,2-5.8,5.77-13,7.83-20.85,8-17,.37-31.29-10.06-34-26.25s-.42-30.51,18.73-39.76c11.2-5.41,23.13-6.15,35.07-3.07,13,3.35,22.56,11.31,27.52,24,6.54,16.7,7.22,33.66.82,50.6-6.46,17.1-19.33,27.21-36.87,29.91-9.62,1.48-19.79-.24-29.67-1C1048.29,2150.26,1043.56,2148.87,1036.79,2147.56Zm39.25-51.25c5.18-1.91,9.9-2.73,13.53-5.18,7.23-4.86,7.37-14.92.95-20.55-7.31-6.41-21.43-5.71-28.11,1.4-5,5.36-5.15,14,.65,18.42C1066.75,2093.2,1071.66,2094.4,1076,2096.32Z" transform="translate(-20 -20.35)"/><path class="cls-2" d="M912.92,2096.75a48.49,48.49,0,0,0,3.81,4.26c13.62,11.69,13.82,30.44.29,42.28-7,6.16-15.48,9-24.74,9.4a91.61,91.61,0,0,1-42.65-8.53c-3.76-1.71-7.81-2.8-13-4.63,1-10.42,5.41-20.76,11.79-32,1.3,2.39,1.87,3.7,2.66,4.84,2.19,3.18,3.87,7.14,6.84,9.27,9.84,7,21.19,9.44,33.18,8.26,7-.7,11.12-4.56,11.72-10.28.55-5.28-3.49-10.06-10-11.89a24.14,24.14,0,0,0-19.82,3.1c-2.62-9.43-1.13-18.41,1-28.39,5.64,4.59,11.86,3.75,18,3.59,4.1-.1,7.19-1.69,7.59-6.25s.58-8.91-4.67-10.87a21.51,21.51,0,0,0-6.72-1.75c-13.89-.33-26.31,2.73-34.28,16.31-7.06-7.31-9.84-16.4-12.93-25,5.53-2.21,10.44-3.92,15.14-6.1,13.41-6.21,27.34-8.26,41.87-5.43,17.07,3.33,26.55,15.21,25.84,31.39C923.42,2086.13,918.83,2091.14,912.92,2096.75Z" transform="translate(-20 -20.35)"/><path class="cls-2" d="M1301.07,2134.67c-12,5.5-22.46,7.26-33.65,6,4.58-15.15-1.11-56.52-9.28-68.13-5.46,1.26-8.91,5-11.45,9.81-5.3-6.52-7.69-17.67-6.38-29.6,2.5.28,5.25,1.34,7.42.63,2.66-.87,4.82-3.23,7.88-5.43l-5.75-10.59c9.75-5.11,20.35-5.6,32.4-6-5.17,8.55-2.4,16.29-1,24.2,3.63,20.22,6.71,40.53,10.32,60.75C1292.74,2122.66,1293.14,2129.62,1301.07,2134.67Z" transform="translate(-20 -20.35)"/><path class="cls-2" d="M673.55,2042.3c1.91,1.55,3.35,3.69,4.82,3.71a22,22,0,0,0,8.67-1.88c2.94-1.26,3-3.58,1.43-12.48,11.77-1.36,21,.24,30,5.07-1.88,4.41-4.59,8.59-5.44,13.11q-7.21,38.22-13.55,76.6c-.67,4,.35,8.27.66,13.74-10.17,1.13-20.38-1.38-30.92-5.13,7.91-10.32,9-22.27,11.77-33.59s5.77-22.46,3-34.54c-6.21-.49-11.06,1.6-16,7.66A69.12,69.12,0,0,1,673.55,2042.3Z" transform="translate(-20 -20.35)"/><path class="cls-1" d="M1063.4,1556.42c-8.45,11.66-16.51,23.08-27.39,31.92-3.27,2.65-8.48,3.92-12.85,4-33.34.92-63.46,12.33-90.74,30.16-25,16.37-48.52,35.16-72.46,53.18a271.34,271.34,0,0,1-56.7,33.28,170.33,170.33,0,0,1-51,12.82c-44.57,4.25-89.18,2-133.75,3.44-4,.13-7.56.57-9,4.67-1.6,4.7,1.18,7.81,5.15,9.5,13.13,5.6,26.32,11.07,39.6,16.3,4.54,1.79,9.42,2.7,14.44,4.1-1.51,5.5-5.71,6.24-9.42,7.09-22,5-43.23,13.07-65.79,16-17,2.19-33.84,2.13-50.67-1.16-29-5.67-58.18-10.86-87.09-17.1-18.18-3.92-35.92-9.84-54.06-14-18.37-4.23-35.3-.27-48.75,13.32-5,5-7.83,12.06-12.38,19.34-2.29-.89-5.84-1.69-8.77-3.5-24.09-14.83-48.78-28.84-71.84-45.14-16.21-11.46-30.28-26-45.08-39.39-4.75-4.31-8.35-9.62-7.75-16.63.42-4.88,1.54-8.86,7.41-10.3,8.64-2.13,12.6-8.4,12.1-17.13-.46-8-1.62-15.88-2.23-23.83-.52-6.83-.71-13.69-1-20.54l2.32-.83c1.53,2.61,3.12,5.2,4.59,7.84,5.19,9.29,10.13,18.73,15.55,27.88,9.31,15.71,23.77,25.39,40.63,30.58,18.39,5.65,37.36,9.44,56.13,13.81a29.44,29.44,0,0,0,9.9.38c18.06-2.1,25.49-17.51,15-32.59-10.9-15.68-19.41-32.55-27.8-49.56-4.77-9.67-6.5-19.9-7.34-31.33a31.7,31.7,0,0,1,4.48,1.53c34.24,18.94,71.1,31.53,107.69,44.87,21,7.64,41.93,15.07,63.71,20.09s43.31,10.16,65.81,10.29c18.3.1,36.6.92,54.9,1.41,23.14.62,45.67-4,68.21-8.25,18.31-3.49,37.28-5.46,54.56-11.86,24.44-9,50.17-15.78,71.36-32.59,7.7-6.11,17.1-10.28,26.15-14.41,4.34-2,9.66-2.5,14.55-2.55,63.53-.7,126.23-7.77,187.82-23.75,2.9-.75,5.83-1.39,8.77-2C1061,1555.69,1061.65,1556,1063.4,1556.42Z" transform="translate(-20 -20.35)"/><path class="cls-3" d="M1735,1814.6c-27-9.16-53.91-17.87-81.86-22.47-26.28-4.32-52.67-7.93-79.47-7.5-26.32.42-52.65.17-79,.07-21.08-.08-41.69,2.78-62.31,7.31-33.55,7.37-67.37,12.32-101.92,6-21.93-4-44.07-6.78-66.1-10.16-25.54-3.92-49.31-13.74-73.42-22.34-8.44-3-16.62-6.77-24.88-10.28-1.34-.57-2.49-1.59-5.82-3.77,4.55-.28,6.69-.38,8.82-.54,9.28-.7,18.63-.88,27.81-2.24,18.29-2.71,20.29-20.49,11.83-29.73-8.94-9.77-20.29-15.39-32.71-17.69-17.31-3.21-35-4.68-52.48-6.69-6.26-.72-12.15-2.07-17.3-5.13,11.39-5.79,22.83-10.32,32.79-17,9.79-6.62,18.06-15.47,27.29-23.6a5.85,5.85,0,0,1,1.46,1.31c10.28,15,25.46,22.7,41.83,29.27,22.14,8.88,45.29,13.51,68.58,17.15,17.71,2.76,35.78,3.13,53.69,4.64,7.61.64,15.2,1.43,22.8,2.21,4.3.44,8.58,1.12,12.88,1.45q24.37,1.85,48.76,3.52c25.4,1.77,50.3-1.24,75.37-5.61,24.65-4.29,48.59-11,72.75-17.08,14-3.5,27.93-7.44,42-11.2-.49,10.65-5.67,19.84-11.6,28.62s-12.39,17.32-18.41,26.1a40.91,40.91,0,0,0-5.07,9.67c-2.53,7.41,1.48,13.43,9.4,14a34.33,34.33,0,0,0,11.86-1c14-4.09,28.81-5.21,42.17-11.74,2.82-1.38,6.59-.65,9.75-1.53,23.62-6.62,47.19-13.33,65.44-31.27,6.84-6.72,14.29-12.82,20.95-19.7,8.66-9,13.76-20.19,18.7-31.47a30.33,30.33,0,0,1,5.86-8.6C1760.94,1704.72,1756.14,1760.33,1735,1814.6Z" transform="translate(-20 -20.35)"/><path class="cls-1" d="M1743,1399.4c-39.48.06-70.69-11.86-84.63-52-14.15-.77-28.4-2.12-42.64-2.08-7.17,0-11.95-2.63-16.88-8.54l103.64-105.14c8.35,3.25,11.34,8.74,12.83,16.18,2.86,14.28,6.6,28.38,9.76,41.65,11,4,20.9,7.62,30.82,11.31,1.55.58,1.91,2.28,4.41,2.28,8.17,8.2,16.25,5.85,24.75.44,4.65-3,9.81-5.1,15.51-8l43.86,78.83c-3.37,6.33-8,10-13.88,12.91-22.86,11.5-45.53,23.39-68.28,35.1-1.17.6-2.49.93-5.11,1.89Zm97.56-25.26-41.38-74.29-67.53,34.77-21.23-92.17c-3.71,3.48-6.18,5.63-8.46,8-11.4,11.66-22.66,23.45-34.13,35-15.23,15.39-30.65,30.6-45.88,46-3.11,3.14-5.76,6.73-9.93,11.67,9.51,0,16.75-.18,24,0,7.51.24,15,.87,22.77,1.35l2.75-15.06-14-.71c9-13.05,50.13-54.07,57.28-57.11l12.75,58.92a135.15,135.15,0,0,1-36.29-1.64c2.93-14,12.6-19.83,24.87-24l-5.73-27.11-44,45.47,8.53,1.35a43.58,43.58,0,0,0,7.56,29.18c16.41,24.67,56.39,38,85.44,28.49a49.3,49.3,0,0,0,27-20.74c-.22,11.76-6.63,19.15-11.43,27.76l35.61-18.21-23.22-41.62-14.6,8.1c-.41,6.37,1.31,12-3.42,16.46l-5.15-12.34-13,6.61,8.88,17.72-2.15,1.13c-4.51-7.46-9.44-14.68-12.68-23.57l50.54-26,27.24,49.17c-1,1.22-1.25,1.94-1.77,2.21q-22,11.65-44.15,23.18c-1.13.59-3.05,1.38-3.69.89-6.6-5.11-10.38.64-15.76,3.29l9.85,16.4Zm-74.23-62.25c-11.23-9.37-24.22-14.12-38.9-17-.63,6.53.8,10.18,6.91,11.87A66.46,66.46,0,0,1,1748,1312C1758.38,1317.58,1757.62,1318.32,1766.32,1311.89ZM1691,1322.71l.32,1.76h19.34l-2.54-8.13Zm52.87,1.27-11-4,1.18,9.25Z" transform="translate(-20 -20.35)"/><path class="cls-1" d="M1088.8,1004.28l-8,6,37.64,31.31c-.59,12.63-5.84,22.37-10.54,32.14-8.68,18.07-7,35,4,51.43,5,7.45,11.24,14.5,14.17,22.72,6.55,18.38,7.17,36.81-14.24,49.22-6.31,3.66-12.84,7-19.21,10.52-1.88,1.05-3.57,2.45-7.05,4.87l17.36,1c-.28,8-3.42,12-11.4,13.73-9.69,2.13-19.63,3.26-29.2,5.82-35.8,9.57-72.25,10.57-108.92,9a284,284,0,0,1-65.74-10.21c-8.21-2.34-17-2.52-25.4-4.29-7.9-1.67-11.2-5.71-12.28-14l16.8-.86c-3.71-2.59-5.57-4.11-7.63-5.3-9.73-5.62-19.94-10.49-27.72-19-9.43-10.33-11.25-23.74-3.53-35.59,9.72-14.92,16.83-30.59,19.9-48.33a70,70,0,0,0-6.51-44.41c-8-15.93-7.95-18.09,5.23-30.68a149.15,149.15,0,0,1,12.27-10.23c3.93-3,8.11-5.74,12-8.5-2.07-7.1-1.65-8.64,3.7-11.38a49.6,49.6,0,0,1,9.26-3.71c40.35-11.18,81.2-18.43,123.28-14.19,24.62,2.49,48.41,8.77,71.53,17.56C1081.62,1000,1084.32,1001.88,1088.8,1004.28Z" transform="translate(-20 -20.35)"/><path class="cls-1" d="M943,760.68c-4.08,19.93,6.75,35.28,15.78,51.15,3.62,6.35,7.22,12.75,11.38,18.74,8.87,12.76,10.78,27,9.37,41.91-.36,3.77-1.49,8-3.68,11C968.06,894,960.33,904.23,959.09,918c-.28,3.16-3.15,6.74-5.81,8.94-14.41,11.89-37.51,13.25-49.86-2.82a71.52,71.52,0,0,1-12.11-24.77c-3.77-13.37-6.54-27-10.35-40.39-6-20.92-16.8-38.72-34.1-52.48a294.21,294.21,0,0,1-23.51-21.44c-8.47-8.39-9.23-25.92-1.69-38.19,5.39-8.76,11.48-17,20.17-23,2.67-1.85,4.63-4.71,7.18-6.77,7.16-5.78,15-8.07,24.61-8.26,16-.32,31.18,1.62,45,9.75a142.91,142.91,0,0,1,19.25,13.62A14.64,14.64,0,0,1,943,744.69C942.7,750,943,755.35,943,760.68Z" transform="translate(-20 -20.35)"/><path class="cls-1" d="M993.52,863.43c-2.07-17.43,8-30,16.07-43.31,3.09-5.12,7.05-9.71,10.12-14.84,13.75-23,14.11-23,14.86-55.52.26-11.26,3.54-19.15,14-23.89,4.11-1.86,7.61-5,11.59-7.26,17.2-9.62,36-8.58,54.49-6.79,5.31.51,11,4.7,15.09,8.65a304,304,0,0,1,23.3,25.61c7.83,9.48,7.86,21,6,32.34-1,6.43-6.58,10.23-11.36,14.56-14.17,12.85-30.54,23.24-41.68,39.54-9,13.16-13.78,27.76-18.42,42.6-4,12.92-6.5,26.7-12.67,38.53-12.52,24-32.07,29-55.73,14a16.55,16.55,0,0,1-7.93-13.31c-.45-10.07-4.46-18.78-10.62-26.44C994.74,880.54,991.15,872.72,993.52,863.43Z" transform="translate(-20 -20.35)"/><path class="cls-1" d="M955,932.43c-2.78,11.68-9.67,20.1-17.68,27.48-11.67,10.77-30.56,11.12-43.18,1.33-2.32-1.8-4.39-3.92-6.31-5.65-10.87.91-21.43,2-32,2.62-18.61,1.08-36.31-11.78-43.11-29.18a106.49,106.49,0,0,1-6.15-53.64c1.52-11.5,2.84-23,4.47-34.51.94-6.63,0-9.23-4.57-10.32-5.6-1.34-11.63,1.46-12.89,6.57-.78,3.16-.52,6.6-.57,9.92a17.89,17.89,0,0,1-19.62,17.15c-10.84-1.16-14.25-5.33-14.44-16.16-.31-17.42,13.72-42.32,35.28-48.3,11.22-3.11,21.61.55,29.91,9,11,11.13,16.26,25.63,23.23,39.17,15.62,30.34,27.71,62.61,48.73,90a93,93,0,0,0,9.54,10c3.1,3,6.64,3.37,11,2.5,11.69-2.31,21.89-7.63,31.73-14C950.56,935,952.8,933.75,955,932.43ZM825.54,845.09c-2.39,8-5.58,15.06-6.38,22.34-1.32,12.12-1.23,24.4-1.47,36.62-.23,11.51,5.41,21.21,11.41,30.2,2.87,4.3,8.71,8.41,13.72,9.15,11.25,1.66,23,2.77,34.36-3.49l-3.57-5.62c-18.1,8.29-29.61,4.15-38.53-13.54a60.12,60.12,0,0,1-3.74-9.21c-4.86-15.68-5.22-31.57.25-47C834.41,856.58,832.58,851.21,825.54,845.09Z" transform="translate(-20 -20.35)"/><path class="cls-1" d="M1006.06,931.16c8.11,5,16.23,10,24.32,15,16.1,10,22.37,9.76,35.62-6,15.71-18.64,25.72-41,37.93-61.84,11.21-19.15,21-39.12,31.78-58.53,7.61-13.71,27-19.72,41.43-14.19,8.88,3.4,15,8.94,19.81,17.08,6.17,10.44,12.08,20.53,10.75,33.42-1,9.6-5.32,13.87-14.84,13-11.6-1.11-17.17-7.08-17.25-18.5,0-2,.09-4,0-6-.58-9.62-8.92-14.53-17.63-10.43-4.83,2.27-5.22,6.49-4.63,10.95,1.69,12.81,3.92,25.56,5.19,38.4,1.82,18.37.28,36.52-7.53,53.5-9.09,19.79-26.63,29.7-51.39,27-8.22-.88-16.32-3-24.55-3.71-3.65-.3-8.17.57-11.1,2.62-14.79,10.37-37.54,4.23-46.8-10-4.31-6.65-8.47-13.39-12.7-20.09Zm75.42,12.58c11.32,6.34,22.48,6.78,33.9,6.62,10.5-.15,17.62-5.58,22.52-13.84,6.14-10.34,10.54-21.38,9.13-34-.44-3.91.34-7.94.32-11.92-.08-13.94-2.2-27.37-9.77-39.74-7.41,8-8.37,12-6.22,20.5a94.54,94.54,0,0,1,3.24,17.59c.92,15.93-1.84,31.11-11.18,44.56-6.14,8.85-14.6,12.63-25,10.23-4.32-1-8.18-4-12.74-6.34Z" transform="translate(-20 -20.35)"/><path class="cls-1" d="M800.94,1159c1.66-6.48-1.08-13.5,4.94-18.25,5.35,2.35,7.68,6,8,12.17.47,9.52,2.51,19,3.65,28.47,1.09,9.12,1.89,18.27,3,28.82a109.05,109.05,0,0,1-29.3-13.08,199,199,0,0,1-27.64-20.91,45.2,45.2,0,0,1-12.72-21c-7.4-25.36-2-48.86,8.53-71.87,3.32-7.25,7-14.32,10.72-21.77h9.78c.43,1.64,1.14,2.92,1,4.12-1.11,10.78-2.84,21.51-3.45,32.31-.89,15.53-1.89,31.17,4,46.17C784.15,1151.32,788.41,1154.7,800.94,1159Z" transform="translate(-20 -20.35)"/><path class="cls-1" d="M1170.34,1014.95c-22.24,32.77-30.9,68.2-30.29,106.26-8.8-.64-13.67-4.9-15-14.53-3.09-23.18,1.16-45.15,11.23-66.21,9.64-20.18,23.73-37.38,36.3-55.61.94-1.36,1.93-3,3.31-3.66,1.93-1,4.64-2.1,6.27-1.42s2.79,3.44,3.2,5.49-.23,4.6-.45,6.92c-.66,6.91-1.47,13.81-2,20.73-.31,4.22,1,9.51-4.57,10.79C1172.43,1025.06,1172.19,1019.26,1170.34,1014.95Z" transform="translate(-20 -20.35)"/><path class="cls-1" d="M813.57,1122.38c-1-43.23-10.28-83.05-35.27-118.42-.83,1.55-1.24,3.33-2.35,4.15-1.71,1.26-4.16,2.89-5.83,2.47s-3.72-2.9-4.19-4.82c-1.88-7.69-3.47-15.48-4.66-23.31-.72-4.7,3.68-7.47,7.88-5a36.57,36.57,0,0,1,8.56,6.78c18.53,20.36,34.82,42.12,44.77,68.24,6.65,17.45,8.36,35.28,6.35,53.54C828,1113.65,823.9,1119.59,813.57,1122.38Z" transform="translate(-20 -20.35)"/><path class="cls-4" d="M1081.7,2094.46a17.46,17.46,0,0,1-11.42-.39,29,29,0,0,1-7.23-3.67c-5.8-4.39-5.69-13.06-.65-18.42,6.68-7.11,20.8-7.81,28.11-1.4,6.43,5.64,6.28,15.7-.95,20.55A29.75,29.75,0,0,1,1081.7,2094.46Z" transform="translate(-20 -20.35)"/><path class="cls-5" d="M1839.35,1373.3l-74.58,38.61-9.85-16.4c5.38-2.65,9.16-8.4,15.76-3.29.63.49,2.56-.31,3.69-.89q22.11-11.51,44.15-23.18c.52-.28.82-1,1.77-2.21L1793,1316.77l-50.54,26c3.24,8.89,8.17,16.11,12.68,23.57l2.15-1.13-8.88-17.72,13-6.61,5.15,12.34c4.73-4.47,3-10.1,3.42-16.46l14.6-8.1,23.22,41.62-35.61,18.21c4.8-8.6,11.21-16,11.43-27.76a49.3,49.3,0,0,1-27,20.74c-29.05,9.52-69-3.82-85.44-28.49a43.58,43.58,0,0,1-7.56-29.18l-8.53-1.35,44-45.47,5.73,27.11c-12.27,4.14-21.94,9.94-24.87,24a135.15,135.15,0,0,0,36.29,1.64l-12.75-58.92c-7.15,3-48.28,44.06-57.28,57.11l14,.71-2.75,15.06c-7.76-.48-15.26-1.11-22.77-1.35-7.23-.23-14.47,0-24,0,4.18-4.94,6.83-8.53,9.93-11.67,15.23-15.39,30.65-30.59,45.88-46,11.47-11.59,22.73-23.38,34.13-35,2.28-2.33,4.75-4.48,8.46-8l21.23,92.17L1798,1299Zm-97.43-.26-15-26.79h-45.11l7.3,6c22.61,17.37,27.87,17.46,24.38,16" transform="translate(-20 -20.35)"/><path class="cls-2" d="M1766.32,1311.89c-8.14,6-8,5.76-16.47,1.16a74.67,74.67,0,0,0-15.54-6.3c-6.09-1.69-7.51-5.35-6.88-11.87C1742.1,1297.77,1755.09,1302.51,1766.32,1311.89Z" transform="translate(-20 -20.35)"/><path class="cls-2" d="M1690.9,1322.76l17.25-6.42,2.54,8.13h-19.31Z" transform="translate(-20 -20.35)"/><path class="cls-2" d="M1743.91,1324l-9.8,5.21-1.18-9.25Z" transform="translate(-20 -20.35)"/><path class="cls-2" d="M825.54,845.09c7,6.12,8.87,11.49,6.05,19.44-5.48,15.44-5.12,31.33-.25,47a60.12,60.12,0,0,0,3.74,9.21c8.92,17.69,20.43,21.83,38.53,13.54l3.57,5.62c-11.36,6.26-23.11,5.15-34.36,3.49-5-.74-10.84-4.84-13.72-9.15-6-9-11.64-18.69-11.41-30.2.25-12.22.15-24.5,1.47-36.62C820,860.15,823.15,853.13,825.54,845.09Z" transform="translate(-20 -20.35)"/><path class="cls-2" d="M1081.49,943.75l4.17-6.3c4.56,2.34,8.42,5.35,12.74,6.34,10.43,2.4,18.89-1.38,25-10.23,9.33-13.45,12.1-28.63,11.18-44.56a94.54,94.54,0,0,0-3.24-17.59c-2.16-8.49-1.19-12.53,6.22-20.5,7.56,12.37,9.69,25.8,9.77,39.74,0,4-.75,8-.32,11.92,1.41,12.58-3,23.63-9.13,34-4.91,8.26-12,13.69-22.52,13.84C1104,950.53,1092.81,950.09,1081.49,943.75Z" transform="translate(-20 -20.35)"/><path class="cls-5" d="M1691,1353.11c-.37-1.39-2.33-2.82-2.72-4.3,8.29,0,15.86-.1,23.42.09,1.46,0,3.57.78,4.23,1.88,3.77,6.33,7.19,12.86,10.73,19.32l-1.54,1.88c-5-1.38-32.84-20.34-37.8-21.72" transform="translate(-20 -20.35)"/><path class="cls-1" d="M1710.31,1366.92c.88-1.3,10.72,3.74,15.68,5.12l1.54-1.88c-3.54-6.46-7-13-10.73-19.32-.66-1.1-2.77-1.84-4.23-1.88-7.56-.18-15.13-.09-23.42-.09l1.15,4.26-7.3-6h45.11l15,26.79C1730.5,1375,1719.35,1373.37,1710.31,1366.92Z" transform="translate(-20 -20.35)"/></svg>